# xmcd
#
# Track frame offsets:
# 150
# 31010
# 56992
# 97695
# 126302
# 153652
#
# Disc length: 2707 seconds
#
#
# Revision: 1
# Processed by: cddbd v1.5.2PL0 Copyright (c) Steve Scherf et al.
# Submitted via: FreeRIP 2.951 
#
DISCID=460a9106
DTITLE=Lee Howard -  - Stringsurfer
DYEAR=1993
DGENRE=Country
TTITLE0=Lee Howard - One People
TTITLE1=Lee Howard - Been that road b4
TTITLE2=Lee Howard - World Beat
TTITLE3=Lee Howard - Rainforest
TTITLE4=Lee Howard - Lonley One
TTITLE5=Lee Howard - Vitamin E minor
EXTD=YEAR: 1993
EXTT0=
EXTT1=
EXTT2=
EXTT3=
EXTT4=
EXTT5=
PLAYORDER=
